<?xml version="1.0" encoding="utf-8"?>
<!-- Generator: Adobe Illustrator 18.0.0, SVG Export Plug-In . SVG Version: 6.00 Build 0)  -->
<svg version="1.2" baseProfile="tiny" xmlns="http://www.w3.org/2000/svg" xmlns:xlink="http://www.w3.org/1999/xlink" x="0px"
	 y="0px" viewBox="0 0 25 25" xml:space="preserve">
<g id="Layer_1" display="none">
	<g display="inline">
		<path fill="#999999" d="M7.6,10.9C7.6,10.9,7.6,10.9,7.6,10.9c-1.2,0-2.1-0.4-2.1-0.4L1.7,8.8c0,0-0.8-0.2-1.1-0.9
			c-0.2-0.3-0.2-0.7-0.1-1c0.3-1,1.4-3,1.5-3.1c0.1-0.2,0.5-0.7,1.1-0.7c0.2,0,0.5,0.1,0.7,0.2C3.9,3.3,5.1,4.1,6,4
			c1.3-0.1,4-1.3,4.9-1.7c0.9-0.5,2.5-0.4,3.9,0.3c1.2,0.5,8.7,3.6,8.8,3.6c0.5,0.3,1.2,1.1,0.8,2.3c-0.3,0.6-0.8,1-1.6,1
			c-0.4,0-0.7-0.1-0.7-0.1l-5.1-2.2c0,0.3,0,0.5,0,0.6c0,0.1-0.1,0.4-0.4,0.7c-0.4,0.4-1.2,0.7-2.2,0.7c-1.9,0-2.8,0.4-4.3,1
			l-0.7,0.3C8.8,10.8,8.2,10.9,7.6,10.9z M3.1,3.9c-0.3,0-0.4,0.2-0.4,0.2c0,0-1.1,2-1.4,3c-0.1,0.2,0,0.3,0,0.4
			C1.5,7.8,1.9,8,2,8.1l3.8,1.7c0,0,0.8,0.4,1.8,0.4l0,0c0.5,0,1-0.1,1.5-0.3l0.7-0.3c1.5-0.6,2.6-1.1,4.6-1.1
			c1.4,0,1.8-0.4,1.8-0.7c0,0,0-0.1,0-0.1c0-0.1,0.1-0.8-0.8-1.1c0,0-0.8-0.2-2.1-0.2c-1.4,0-2.9,0.2-4.5,0.6c0,0,0,0,0,0
			C8.5,7.1,8.3,7,8.2,6.7C8.2,6.5,8.3,6.3,8.5,6.3c1.7-0.4,3.2-0.7,4.7-0.7c2,0,3,0.4,3,0.5l6.1,2.6c0,0,0.2,0.1,0.5,0.1
			c0.7,0,0.8-0.4,0.9-0.5c0.3-0.8-0.3-1.2-0.4-1.3l0,0c0,0-7.5-3.1-8.8-3.6c-1.2-0.5-2.6-0.6-3.2-0.3c-0.9,0.4-3.6,1.6-5.2,1.8
			C4.9,5,3.5,4.1,3.4,4C3.3,4,3.2,3.9,3.1,3.9z"/>
		<path fill="#999999" d="M12.7,22.9c-0.8,0-1.7-0.2-2.5-0.6c-1.2-0.5-8.7-3.6-8.8-3.6c-0.5-0.3-1.2-1.1-0.8-2.3
			c0.3-0.6,0.8-1,1.6-1c0.4,0,0.7,0.1,0.7,0.1l5.1,2.2c0-0.3,0-0.5,0-0.6c0-0.1,0.1-0.4,0.4-0.7c0.4-0.4,1.2-0.7,2.2-0.7
			c1.9,0,2.8-0.4,4.3-1l0.7-0.3c0.6-0.2,1.2-0.3,1.8-0.3c1.2,0,2.1,0.4,2.1,0.4l3.7,1.7c0,0,0.8,0.2,1.1,0.9c0.2,0.3,0.2,0.7,0.1,1
			c-0.3,1-1.4,3-1.5,3.1c-0.1,0.2-0.5,0.7-1.1,0.7c-0.2,0-0.5-0.1-0.7-0.2c-0.1,0-1.3-0.8-2.2-0.7c-1.3,0.1-4,1.3-4.9,1.7
			C13.8,22.8,13.3,22.9,12.7,22.9z M1.7,18.1c0,0,7.5,3.1,8.8,3.6c1.2,0.5,2.6,0.6,3.2,0.3c0.9-0.4,3.6-1.6,5.2-1.8
			c1.1-0.1,2.6,0.8,2.6,0.8c0.1,0,0.2,0.1,0.3,0.1c0.3,0,0.4-0.2,0.4-0.2c0,0,1.1-2,1.4-3c0.1-0.2,0-0.3,0-0.4
			c-0.1-0.3-0.5-0.4-0.7-0.5l-3.8-1.7c0,0-0.8-0.4-1.8-0.4c-0.5,0-1,0.1-1.5,0.3l-0.7,0.3c-1.5,0.6-2.6,1.1-4.6,1.1
			c-1.4,0-1.8,0.4-1.8,0.7c0,0,0,0.1,0,0.1c0,0.1-0.1,0.8,0.8,1.1c0,0,0.8,0.2,2.1,0.2c1.4,0,2.9-0.2,4.5-0.6c0,0,0,0,0,0
			c0.2-0.1,0.4,0.1,0.5,0.3c0.1,0.2-0.1,0.4-0.3,0.5c-1.7,0.4-3.2,0.7-4.7,0.7c-2,0-3-0.4-3-0.5l-6.1-2.6c0,0-0.2-0.1-0.5-0.1
			c-0.7,0-0.8,0.4-0.9,0.5C1,17.6,1.7,18,1.7,18.1L1.7,18.1z"/>
	</g>
</g>
<g id="Layer_2">
	<g>
		<g>
			<path fill="#CDEBC3" d="M8.5,6.4c5.1-1.3,7.7-0.2,7.7-0.2l6.3,2.7c0,0,1.4,0.4,1.9-0.7c0.5-1.2-0.6-1.8-0.6-1.8S16,3.2,14.7,2.6
				c-1.3-0.6-2.8-0.7-3.7-0.3C10.1,2.8,7.3,4,5.8,4.2c-1,0.1-2.5-0.8-2.5-0.8C2.4,2.9,2,3.7,2,3.7S0.9,5.8,0.5,6.9
				c-0.3,1,1,1.4,1,1.4L5.4,10c0,0,1.8,0.9,3.7,0.1c1.9-0.8,3-1.3,5.3-1.3s2.3-1.1,2.3-1.1S17,6.4,15.5,6C15.5,6,13,5.3,8.5,6.4z"/>
			<path fill="#42B549" d="M7.4,10.8L7.4,10.8c-1.2,0-2.1-0.4-2.2-0.5L1.3,8.7c0,0-0.8-0.3-1.1-0.9C0.1,7.5,0,7.1,0.2,6.7
				c0.4-1.1,1.5-3.1,1.5-3.2c0.1-0.2,0.5-0.7,1.1-0.7C3,2.8,3.3,2.9,3.5,3c0.1,0,1.4,0.9,2.3,0.8c1.4-0.1,4.2-1.3,5-1.8
				c0.9-0.5,2.6-0.4,4.1,0.3C16.2,2.8,23.9,6,24,6c0.5,0.3,1.2,1.2,0.8,2.3c-0.3,0.7-0.9,1-1.6,1c-0.4,0-0.7-0.1-0.7-0.1L17.1,7
				c0.1,0.3,0,0.5,0,0.7c0,0.1-0.1,0.5-0.4,0.8c-0.4,0.5-1.2,0.7-2.3,0.7c-2,0-2.9,0.4-4.5,1l-0.7,0.3C8.7,10.7,8,10.8,7.4,10.8z
				 M2.8,3.6c-0.3,0-0.4,0.2-0.4,0.2c0,0-1.1,2.1-1.5,3.1c-0.1,0.2-0.1,0.3,0,0.4c0.1,0.3,0.6,0.5,0.7,0.5l3.9,1.7
				c0,0,0.8,0.4,1.8,0.4c0,0,0,0,0,0C7.9,10,8.5,9.9,9,9.7l0.7-0.3c1.5-0.6,2.6-1.1,4.8-1.1c1.5,0,1.9-0.5,1.9-0.7l0-0.1
				c0-0.1,0.1-0.9-0.8-1.1c0,0-0.8-0.2-2.2-0.2c-1.4,0-3,0.2-4.6,0.6L8.4,6.1c1.7-0.4,3.3-0.7,4.8-0.7c2.1,0,3.1,0.4,3.1,0.5
				l6.3,2.7c0,0,0,0,0,0c0,0,0.2,0.1,0.5,0.1c0.7,0,0.9-0.4,0.9-0.5c0.3-0.8-0.4-1.3-0.4-1.3l0,0c0,0-7.8-3.2-9.1-3.7
				c-1.2-0.5-2.7-0.7-3.4-0.3c-0.9,0.5-3.8,1.7-5.3,1.9C4.7,4.7,3.2,3.8,3.1,3.7C3,3.7,2.9,3.6,2.8,3.6z"/>
		</g>
		<g>
			<path fill="#CDEBC3" d="M16.5,18.6c-5.1,1.3-7.7,0.2-7.7,0.2l-6.3-2.7c0,0-1.4-0.4-1.9,0.7c-0.5,1.2,0.6,1.8,0.6,1.8
				s7.8,3.2,9.1,3.8c1.3,0.6,2.8,0.7,3.7,0.3c0.9-0.5,3.7-1.7,5.2-1.8c1-0.1,2.5,0.8,2.5,0.8c1,0.4,1.3-0.3,1.3-0.3s1.1-2.1,1.5-3.2
				c0.3-1-1-1.4-1-1.4L19.6,15c0,0-1.8-0.9-3.7-0.1c-1.9,0.8-3,1.3-5.3,1.3s-2.3,1.1-2.3,1.1S8,18.6,9.5,19
				C9.5,19,12,19.7,16.5,18.6z"/>
			<path fill="#42B549" d="M12.7,23.3c-0.8,0-1.7-0.2-2.6-0.6C8.8,22.2,1.1,19,1,19c-0.5-0.3-1.2-1.2-0.8-2.3c0.3-0.7,0.9-1,1.6-1
				c0.4,0,0.7,0.1,0.7,0.1L7.9,18c-0.1-0.3,0-0.5,0-0.7c0-0.1,0.1-0.5,0.4-0.8c0.4-0.5,1.2-0.7,2.3-0.7c2,0,2.9-0.4,4.5-1l0.7-0.3
				c0.6-0.2,1.2-0.4,1.9-0.4c1.2,0,2.1,0.4,2.2,0.5l3.9,1.7c0,0,0.8,0.3,1.1,0.9c0.2,0.3,0.2,0.7,0.1,1.1c-0.4,1.1-1.5,3.1-1.5,3.2
				c-0.1,0.2-0.5,0.7-1.1,0.7c-0.2,0-0.5-0.1-0.7-0.2c-0.1,0-1.3-0.9-2.3-0.8c-1.4,0.1-4.2,1.3-5,1.8C13.8,23.2,13.3,23.3,12.7,23.3
				z M1.4,18.3c0,0,7.8,3.2,9.1,3.7c1.2,0.5,2.7,0.7,3.4,0.3c0.9-0.5,3.8-1.7,5.3-1.9c1.2-0.1,2.7,0.8,2.7,0.9
				c0.1,0,0.2,0.1,0.3,0.1c0.3,0,0.4-0.2,0.4-0.2c0,0,1.1-2.1,1.5-3.1c0.1-0.2,0.1-0.3,0-0.4c-0.1-0.3-0.5-0.5-0.7-0.5l-3.9-1.7
				c0,0-0.8-0.4-1.8-0.4c-0.5,0-1.1,0.1-1.6,0.3l-0.7,0.3c-1.5,0.6-2.6,1.1-4.8,1.1c-1.5,0-1.9,0.5-1.9,0.7l0,0.1
				c0,0.1-0.1,0.9,0.8,1.1c0,0,0.8,0.2,2.2,0.2c1.4,0,3-0.2,4.6-0.6l0.2,0.8c0,0,0,0,0,0l0,0c0,0,0,0,0,0c-1.7,0.4-3.3,0.7-4.8,0.7
				c-2.1,0-3.1-0.4-3.1-0.5l-6.3-2.7c0,0-0.2-0.1-0.5-0.1c-0.7,0-0.9,0.4-0.9,0.5C0.6,17.8,1.3,18.2,1.4,18.3L1.4,18.3z"/>
		</g>
	</g>
</g>
</svg>
