<?xml version="1.0" encoding="utf-8"?>
<!-- Generator: Adobe Illustrator 18.0.0, SVG Export Plug-In . SVG Version: 6.00 Build 0)  -->
<svg version="1.2" baseProfile="tiny" xmlns="http://www.w3.org/2000/svg" xmlns:xlink="http://www.w3.org/1999/xlink" x="0px"
	 y="0px" viewBox="0 0 25 25" xml:space="preserve">
<g id="bpjs" display="none">
	<g display="inline">
		<path fill="#999999" d="M7.6,10.9C7.6,10.9,7.6,10.9,7.6,10.9c-1.2,0-2.1-0.4-2.1-0.4L1.7,8.8c0,0-0.8-0.2-1.1-0.9
			c-0.2-0.3-0.2-0.7-0.1-1c0.3-1,1.4-3,1.5-3.1c0.1-0.2,0.5-0.7,1.1-0.7c0.2,0,0.5,0.1,0.7,0.2C3.9,3.3,5.1,4.1,6,4
			c1.3-0.1,4-1.3,4.9-1.7c0.9-0.5,2.5-0.4,3.9,0.3c1.2,0.5,8.7,3.6,8.8,3.6c0.5,0.3,1.2,1.1,0.8,2.3c-0.3,0.6-0.8,1-1.6,1
			c-0.4,0-0.7-0.1-0.7-0.1l-5.1-2.2c0,0.3,0,0.5,0,0.6c0,0.1-0.1,0.4-0.4,0.7c-0.4,0.4-1.2,0.7-2.2,0.7c-1.9,0-2.8,0.4-4.3,1
			l-0.7,0.3C8.8,10.8,8.2,10.9,7.6,10.9z M3.1,3.9c-0.3,0-0.4,0.2-0.4,0.2c0,0-1.1,2-1.4,3c-0.1,0.2,0,0.3,0,0.4
			C1.5,7.8,1.9,8,2,8.1l3.8,1.7c0,0,0.8,0.4,1.8,0.4l0,0c0.5,0,1-0.1,1.5-0.3l0.7-0.3c1.5-0.6,2.6-1.1,4.6-1.1
			c1.4,0,1.8-0.4,1.8-0.7c0,0,0-0.1,0-0.1c0-0.1,0.1-0.8-0.8-1.1c0,0-0.8-0.2-2.1-0.2c-1.4,0-2.9,0.2-4.5,0.6c0,0,0,0,0,0
			C8.5,7.1,8.3,7,8.2,6.7C8.2,6.5,8.3,6.3,8.5,6.3c1.7-0.4,3.2-0.7,4.7-0.7c2,0,3,0.4,3,0.5l6.1,2.6c0,0,0.2,0.1,0.5,0.1
			c0.7,0,0.8-0.4,0.9-0.5c0.3-0.8-0.3-1.2-0.4-1.3l0,0c0,0-7.5-3.1-8.8-3.6c-1.2-0.5-2.6-0.6-3.2-0.3c-0.9,0.4-3.6,1.6-5.2,1.8
			C4.9,5,3.5,4.1,3.4,4C3.3,4,3.2,3.9,3.1,3.9z"/>
		<path fill="#999999" d="M12.7,22.9c-0.8,0-1.7-0.2-2.5-0.6c-1.2-0.5-8.7-3.6-8.8-3.6c-0.5-0.3-1.2-1.1-0.8-2.3
			c0.3-0.6,0.8-1,1.6-1c0.4,0,0.7,0.1,0.7,0.1l5.1,2.2c0-0.3,0-0.5,0-0.6c0-0.1,0.1-0.4,0.4-0.7c0.4-0.4,1.2-0.7,2.2-0.7
			c1.9,0,2.8-0.4,4.3-1l0.7-0.3c0.6-0.2,1.2-0.3,1.8-0.3c1.2,0,2.1,0.4,2.1,0.4l3.7,1.7c0,0,0.8,0.2,1.1,0.9c0.2,0.3,0.2,0.7,0.1,1
			c-0.3,1-1.4,3-1.5,3.1c-0.1,0.2-0.5,0.7-1.1,0.7c-0.2,0-0.5-0.1-0.7-0.2c-0.1,0-1.3-0.8-2.2-0.7c-1.3,0.1-4,1.3-4.9,1.7
			C13.8,22.8,13.3,22.9,12.7,22.9z M1.7,18.1c0,0,7.5,3.1,8.8,3.6c1.2,0.5,2.6,0.6,3.2,0.3c0.9-0.4,3.6-1.6,5.2-1.8
			c1.1-0.1,2.6,0.8,2.6,0.8c0.1,0,0.2,0.1,0.3,0.1c0.3,0,0.4-0.2,0.4-0.2c0,0,1.1-2,1.4-3c0.1-0.2,0-0.3,0-0.4
			c-0.1-0.3-0.5-0.4-0.7-0.5l-3.8-1.7c0,0-0.8-0.4-1.8-0.4c-0.5,0-1,0.1-1.5,0.3l-0.7,0.3c-1.5,0.6-2.6,1.1-4.6,1.1
			c-1.4,0-1.8,0.4-1.8,0.7c0,0,0,0.1,0,0.1c0,0.1-0.1,0.8,0.8,1.1c0,0,0.8,0.2,2.1,0.2c1.4,0,2.9-0.2,4.5-0.6c0,0,0,0,0,0
			c0.2-0.1,0.4,0.1,0.5,0.3c0.1,0.2-0.1,0.4-0.3,0.5c-1.7,0.4-3.2,0.7-4.7,0.7c-2,0-3-0.4-3-0.5l-6.1-2.6c0,0-0.2-0.1-0.5-0.1
			c-0.7,0-0.8,0.4-0.9,0.5C1,17.6,1.7,18,1.7,18.1L1.7,18.1z"/>
	</g>
</g>
<g id="bpjs-active" display="none">
	<g display="inline">
		<g>
			<path fill="#CDEBC3" d="M8.5,6.4c5.1-1.3,7.7-0.2,7.7-0.2l6.3,2.7c0,0,1.4,0.4,1.9-0.7c0.5-1.2-0.6-1.8-0.6-1.8S16,3.2,14.7,2.6
				c-1.3-0.6-2.8-0.7-3.7-0.3C10.1,2.8,7.3,4,5.8,4.2c-1,0.1-2.5-0.8-2.5-0.8C2.4,2.9,2,3.7,2,3.7S0.9,5.8,0.5,6.9
				c-0.3,1,1,1.4,1,1.4L5.4,10c0,0,1.8,0.9,3.7,0.1c1.9-0.8,3-1.3,5.3-1.3s2.3-1.1,2.3-1.1S17,6.4,15.5,6C15.5,6,13,5.3,8.5,6.4z"/>
			<path fill="#42B549" d="M7.4,10.8L7.4,10.8c-1.2,0-2.1-0.4-2.2-0.5L1.3,8.7c0,0-0.8-0.3-1.1-0.9C0.1,7.5,0,7.1,0.2,6.7
				c0.4-1.1,1.5-3.1,1.5-3.2c0.1-0.2,0.5-0.7,1.1-0.7C3,2.8,3.3,2.9,3.5,3c0.1,0,1.4,0.9,2.3,0.8c1.4-0.1,4.2-1.3,5-1.8
				c0.9-0.5,2.6-0.4,4.1,0.3C16.2,2.8,23.9,6,24,6c0.5,0.3,1.2,1.2,0.8,2.3c-0.3,0.7-0.9,1-1.6,1c-0.4,0-0.7-0.1-0.7-0.1L17.1,7
				c0.1,0.3,0,0.5,0,0.7c0,0.1-0.1,0.5-0.4,0.8c-0.4,0.5-1.2,0.7-2.3,0.7c-2,0-2.9,0.4-4.5,1l-0.7,0.3C8.7,10.7,8,10.8,7.4,10.8z
				 M2.8,3.6c-0.3,0-0.4,0.2-0.4,0.2c0,0-1.1,2.1-1.5,3.1c-0.1,0.2-0.1,0.3,0,0.4c0.1,0.3,0.6,0.5,0.7,0.5l3.9,1.7
				c0,0,0.8,0.4,1.8,0.4c0,0,0,0,0,0C7.9,10,8.5,9.9,9,9.7l0.7-0.3c1.5-0.6,2.6-1.1,4.8-1.1c1.5,0,1.9-0.5,1.9-0.7l0-0.1
				c0-0.1,0.1-0.9-0.8-1.1c0,0-0.8-0.2-2.2-0.2c-1.4,0-3,0.2-4.6,0.6L8.4,6.1c1.7-0.4,3.3-0.7,4.8-0.7c2.1,0,3.1,0.4,3.1,0.5
				l6.3,2.7c0,0,0,0,0,0c0,0,0.2,0.1,0.5,0.1c0.7,0,0.9-0.4,0.9-0.5c0.3-0.8-0.4-1.3-0.4-1.3l0,0c0,0-7.8-3.2-9.1-3.7
				c-1.2-0.5-2.7-0.7-3.4-0.3c-0.9,0.5-3.8,1.7-5.3,1.9C4.7,4.7,3.2,3.8,3.1,3.7C3,3.7,2.9,3.6,2.8,3.6z"/>
		</g>
		<g>
			<path fill="#CDEBC3" d="M16.5,18.6c-5.1,1.3-7.7,0.2-7.7,0.2l-6.3-2.7c0,0-1.4-0.4-1.9,0.7c-0.5,1.2,0.6,1.8,0.6,1.8
				s7.8,3.2,9.1,3.8c1.3,0.6,2.8,0.7,3.7,0.3c0.9-0.5,3.7-1.7,5.2-1.8c1-0.1,2.5,0.8,2.5,0.8c1,0.4,1.3-0.3,1.3-0.3s1.1-2.1,1.5-3.2
				c0.3-1-1-1.4-1-1.4L19.6,15c0,0-1.8-0.9-3.7-0.1c-1.9,0.8-3,1.3-5.3,1.3s-2.3,1.1-2.3,1.1S8,18.6,9.5,19
				C9.5,19,12,19.7,16.5,18.6z"/>
			<path fill="#42B549" d="M12.7,23.3c-0.8,0-1.7-0.2-2.6-0.6C8.8,22.2,1.1,19,1,19c-0.5-0.3-1.2-1.2-0.8-2.3c0.3-0.7,0.9-1,1.6-1
				c0.4,0,0.7,0.1,0.7,0.1L7.9,18c-0.1-0.3,0-0.5,0-0.7c0-0.1,0.1-0.5,0.4-0.8c0.4-0.5,1.2-0.7,2.3-0.7c2,0,2.9-0.4,4.5-1l0.7-0.3
				c0.6-0.2,1.2-0.4,1.9-0.4c1.2,0,2.1,0.4,2.2,0.5l3.9,1.7c0,0,0.8,0.3,1.1,0.9c0.2,0.3,0.2,0.7,0.1,1.1c-0.4,1.1-1.5,3.1-1.5,3.2
				c-0.1,0.2-0.5,0.7-1.1,0.7c-0.2,0-0.5-0.1-0.7-0.2c-0.1,0-1.3-0.9-2.3-0.8c-1.4,0.1-4.2,1.3-5,1.8C13.8,23.2,13.3,23.3,12.7,23.3
				z M1.4,18.3c0,0,7.8,3.2,9.1,3.7c1.2,0.5,2.7,0.7,3.4,0.3c0.9-0.5,3.8-1.7,5.3-1.9c1.2-0.1,2.7,0.8,2.7,0.9
				c0.1,0,0.2,0.1,0.3,0.1c0.3,0,0.4-0.2,0.4-0.2c0,0,1.1-2.1,1.5-3.1c0.1-0.2,0.1-0.3,0-0.4c-0.1-0.3-0.5-0.5-0.7-0.5l-3.9-1.7
				c0,0-0.8-0.4-1.8-0.4c-0.5,0-1.1,0.1-1.6,0.3l-0.7,0.3c-1.5,0.6-2.6,1.1-4.8,1.1c-1.5,0-1.9,0.5-1.9,0.7l0,0.1
				c0,0.1-0.1,0.9,0.8,1.1c0,0,0.8,0.2,2.2,0.2c1.4,0,3-0.2,4.6-0.6l0.2,0.8c0,0,0,0,0,0l0,0c0,0,0,0,0,0c-1.7,0.4-3.3,0.7-4.8,0.7
				c-2.1,0-3.1-0.4-3.1-0.5l-6.3-2.7c0,0-0.2-0.1-0.5-0.1c-0.7,0-0.9,0.4-0.9,0.5C0.6,17.8,1.3,18.2,1.4,18.3L1.4,18.3z"/>
		</g>
	</g>
</g>
<g id="air" display="none">
	<g display="inline">
		<path fill="none" stroke="#999999" stroke-linecap="round" stroke-linejoin="round" stroke-miterlimit="10" d="M12.2,17.3"/>
		<g>
			<path fill="#999999" d="M12.5,24.9c-4.5,0-8.3-3.6-8.3-7.9c0-4.8,7.7-15.9,8-16.4c0.1-0.1,0.2-0.2,0.3-0.2l0,0
				c0.1,0,0.3,0.1,0.3,0.2c0.3,0.5,8,11.6,8,16.2C20.8,21.1,16.9,24.9,12.5,24.9z M12.5,1.5C11,3.7,5,13,5,17c0,3.9,3.4,7.2,7.5,7.2
				c4,0,7.5-3.4,7.5-7.3C20,12.9,14,3.7,12.5,1.5z"/>
		</g>
		<path fill="#999999" d="M11.3,21.3c-2.2,0-4.1-1.8-4.1-3.9c0-0.9,0.3-1.9,0.8-2.5c0.1-0.2,0.4-0.2,0.6-0.1
			c0.2,0.1,0.2,0.4,0.1,0.6c-0.4,0.5-0.6,1.3-0.6,2c0,1.7,1.5,3.1,3.3,3.1c0.2,0,0.4,0.2,0.4,0.4S11.6,21.3,11.3,21.3z"/>
	</g>
</g>
<g id="air-active" display="none">
	<g display="inline">
		<path fill="none" stroke="#999999" stroke-linecap="round" stroke-linejoin="round" stroke-miterlimit="10" d="M12.2,17.3"/>
		<g>
			<path fill="#FFFFFF" d="M4.6,17c0,4.1,3.6,7.5,7.9,7.5c4.2,0,7.9-3.6,7.9-7.7c0-4.5-7.9-16-7.9-16S4.6,12.3,4.6,17z"/>
		</g>
		<path fill="#CDEBC3" d="M16.5,16.9c-4.3,0-7.9-3.5-7.9-7.5c0-1.1,0.4-2.5,1.1-4.1c-2.3,3.7-5,8.9-5,11.7c0,4.1,3.6,7.5,7.9,7.5
			c4.2,0,7.9-3.6,7.9-7.7c0-0.3,0-0.6-0.1-0.9C19.2,16.5,17.8,16.9,16.5,16.9z"/>
		<g>
			<path fill="#42B549" d="M12.5,24.9c-4.5,0-8.3-3.6-8.3-7.9c0-4.8,7.7-15.9,8-16.4l0.3-0.5l0.3,0.5c0.3,0.5,8,11.6,8,16.2
				C20.8,21.1,16.9,24.9,12.5,24.9z M12.5,1.5C11,3.7,5,13,5,17c0,3.9,3.4,7.2,7.5,7.2c4,0,7.5-3.4,7.5-7.3C20,12.9,14,3.7,12.5,1.5
				z"/>
		</g>
		<path fill="#42B549" d="M11.3,21.3c-2.2,0-4.1-1.8-4.1-3.9c0-0.9,0.3-1.9,0.8-2.5c0.1-0.2,0.4-0.2,0.6-0.1
			c0.2,0.1,0.2,0.4,0.1,0.6c-0.4,0.5-0.6,1.3-0.6,2c0,1.7,1.5,3.1,3.3,3.1c0.2,0,0.4,0.2,0.4,0.4S11.6,21.3,11.3,21.3z"/>
	</g>
</g>
<g id="finance" display="none">
	<g display="inline">
		<g>
			<path fill="#999999" d="M18.2,11.5c-0.2,0-0.4-0.2-0.4-0.4c0-0.2,0.1-0.4,0.4-0.4c3.5-0.4,6.1-1.9,6.1-3.7c0-2.1-3.6-3.8-7.8-3.8
				c-2.3,0-4.4,0.5-5.9,1.4c-0.2,0.1-0.4,0-0.6-0.2c-0.1-0.2,0-0.4,0.2-0.6c1.6-0.9,3.9-1.5,6.3-1.5c4.8,0,8.6,2,8.6,4.6
				C25.1,9.2,22.3,11,18.2,11.5C18.3,11.5,18.3,11.5,18.2,11.5z"/>
			<path fill="#999999" d="M18.7,14.5c-0.2,0-0.4-0.1-0.4-0.3c0-0.2,0.1-0.4,0.3-0.5c0.5-0.1,1-0.2,1.5-0.3c0.5-0.1,1-0.3,1.4-0.5
				c0.5-0.2,1-0.5,1.4-0.8c0.7-0.5,1.1-0.9,1.3-1.4V8.9c-0.2,0.3-0.5,0.6-0.9,0.8c-0.5,0.3-1,0.6-1.6,0.8c-0.5,0.2-1,0.4-1.6,0.5
				c-0.5,0.1-1,0.2-1.5,0.3c-0.2,0-0.4-0.1-0.5-0.3c0-0.2,0.1-0.4,0.3-0.5c0.5-0.1,1-0.2,1.5-0.3c0.5-0.1,1-0.3,1.4-0.5
				c0.5-0.2,1-0.5,1.4-0.8c0.6-0.4,1.1-1.3,1.3-1.9c0.1-0.2,0.3-0.3,0.4-0.3c0.2,0,0.3,0.2,0.3,0.4v3.6c0,0.1,0,0.1,0,0.1
				c-0.3,0.8-1,1.4-1.6,1.8c-0.5,0.3-1,0.6-1.6,0.8c-0.5,0.2-1,0.4-1.5,0.5C19.8,14.4,19.3,14.5,18.7,14.5
				C18.8,14.5,18.7,14.5,18.7,14.5z"/>
			<path fill="#999999" d="M17.6,17.7c-0.2,0-0.4-0.2-0.4-0.4c0-0.2,0.2-0.4,0.4-0.4c0.2,0,0.3,0,0.4,0c0.2,0,0.3,0,0.6-0.1
				c0.5-0.1,1-0.2,1.5-0.3c0.5-0.1,1-0.3,1.4-0.5c0.5-0.2,1-0.5,1.4-0.8c0.7-0.5,1.1-0.9,1.3-1.4v-1.8c-0.2,0.2-0.5,0.5-0.9,0.7
				c-0.4,0.3-1,0.6-1.6,0.8c-0.5,0.2-1,0.4-1.6,0.5c-0.5,0.1-1,0.2-1.5,0.3c-0.2,0-0.4-0.1-0.5-0.3c0-0.2,0.1-0.4,0.3-0.5
				c0.5-0.1,1-0.2,1.5-0.3c0.5-0.1,1-0.3,1.4-0.5c0.5-0.2,1-0.5,1.4-0.8c0.8-0.5,1.2-1,1.3-1.5c0.1-0.2,0.2-0.3,0.5-0.3
				c0.2,0,0.3,0.2,0.3,0.4V14c0,0.1,0,0.1,0,0.1c-0.3,0.8-1,1.4-1.6,1.8c-0.5,0.3-1,0.6-1.6,0.8c-0.5,0.2-1,0.4-1.5,0.5
				c-0.5,0.1-1,0.2-1.5,0.3c-0.4,0.1-0.5,0.1-0.7,0.1C17.9,17.7,17.8,17.7,17.6,17.7C17.7,17.7,17.7,17.7,17.6,17.7z"/>
			<path fill="#999999" d="M16.5,21.1c-0.3,0-0.5,0-0.8,0l-0.3,0c-0.2,0-0.4,0-0.7-0.1c-0.2,0-0.4-0.2-0.3-0.5
				c0-0.2,0.2-0.4,0.5-0.3c0.3,0,0.4,0.1,0.6,0.1l0.3,0c0.5,0,1,0,1.5,0c0.5,0,1-0.1,1.5-0.1c0.5-0.1,1-0.2,1.5-0.3
				c0.5-0.1,1-0.3,1.4-0.5c0.5-0.2,1-0.5,1.4-0.8c0.7-0.5,1.1-0.9,1.3-1.4v-1.8c-0.2,0.2-0.5,0.5-0.9,0.7c-0.4,0.3-1,0.6-1.6,0.8
				c-0.5,0.2-1,0.4-1.6,0.5c-0.5,0.1-1,0.2-1.5,0.3c-0.4,0.1-0.4,0.1-0.6,0.1c-0.1,0-0.2,0-0.3,0c-0.2,0-0.4-0.2-0.4-0.4
				c0-0.2,0.2-0.4,0.4-0.4c0.2,0,0.3,0,0.4,0c0.2,0,0.2,0,0.5,0c0.5-0.1,1-0.2,1.5-0.3c0.5-0.1,1-0.3,1.4-0.5c0.5-0.2,1-0.5,1.4-0.8
				c0.8-0.5,1.2-1,1.3-1.5c0.1-0.2,0.2-0.3,0.5-0.3c0.2,0,0.3,0.2,0.3,0.4v3.2c0,0.1,0,0.1,0,0.1c-0.3,0.8-1,1.4-1.6,1.8
				c-0.5,0.3-1,0.6-1.6,0.8c-0.5,0.2-1,0.4-1.5,0.5c-0.5,0.1-1,0.2-1.5,0.3c-0.5,0.1-1,0.1-1.5,0.1C17,21.1,16.7,21.1,16.5,21.1z"/>
		</g>
		<g>
			<g>
				<path fill="#999999" d="M9.4,22.7c-4.6,0-8.6-3.3-9.4-7.9c-0.9-5.2,2.6-10.1,7.8-11c0.5-0.1,1.1-0.1,1.6-0.1
					c4.6,0,8.6,3.3,9.4,7.9c0.9,5.2-2.6,10.1-7.8,11C10.5,22.6,9.9,22.7,9.4,22.7z M9.4,4.5c-0.5,0-1,0-1.5,0.1
					C3.2,5.4,0,9.9,0.8,14.6c0.7,4.2,4.3,7.2,8.6,7.2c0.5,0,1,0,1.5-0.1c4.7-0.8,7.9-5.3,7.1-10C17.3,7.5,13.7,4.5,9.4,4.5z"/>
				<g>
					<path fill="#999999" d="M8.1,12.5l0.2-0.2c0.4-0.4,0.6-0.9,0.6-1.4c0-0.6-0.2-1-0.6-1.4C7.9,9.1,7.4,8.9,6.8,8.9l-1.9,0
						c-0.1,0-0.2,0-0.3,0.1C4.5,9.1,4.4,9.2,4.4,9.4v6c0,0.1,0,0.2,0.1,0.3c0.1,0.1,0.2,0.1,0.3,0.1c0.1,0,0.3,0,0.3-0.1
						c0.1-0.1,0.1-0.2,0.1-0.3v-2.4h1.5c0.1,0,0.2,0,0.3,0l0.1,0l1.5,2.7c0.1,0.1,0.2,0.2,0.3,0.2c0,0,0.1,0,0.1,0
						c0.1,0,0.2,0,0.2-0.1c0.1-0.1,0.2-0.2,0.2-0.3c0,0,0-0.1,0-0.1c0-0.1,0-0.2-0.1-0.2L8.1,12.5z M5.4,9.8h1.5
						c0.3,0,0.5,0.1,0.7,0.3c0.2,0.2,0.3,0.4,0.3,0.7c0,0.3-0.1,0.5-0.3,0.7C7.4,11.8,7.1,12,6.8,12H5.4V9.8z"/>
					<path fill="#999999" d="M14.5,11.7c-0.5-0.5-1-0.7-1.7-0.7c-0.7,0-1.2,0.2-1.7,0.7c-0.5,0.5-0.7,1-0.7,1.7v3.9
						c0,0.1,0,0.3,0.1,0.3c0.1,0.1,0.2,0.1,0.3,0.1c0.1,0,0.2-0.1,0.3-0.1c0.1-0.1,0.1-0.2,0.1-0.3v-1.9l0.2,0.1
						c0.4,0.2,0.8,0.3,1.2,0.3c0.6,0,1.2-0.2,1.7-0.7c0.5-0.5,0.7-1,0.7-1.7C15.1,12.7,14.9,12.2,14.5,11.7z M12.8,14.8
						c-0.4,0-0.7-0.1-1-0.4c-0.2-0.2-0.4-0.5-0.4-0.8l0-0.3c0-0.4,0.1-0.7,0.4-0.9c0.3-0.3,0.6-0.4,1-0.4c0.4,0,0.7,0.1,1,0.4
						c0.3,0.3,0.4,0.6,0.4,1c0,0.4-0.1,0.7-0.4,1C13.5,14.7,13.2,14.8,12.8,14.8z"/>
				</g>
			</g>
		</g>
	</g>
</g>
<g id="finance-active" display="none">
	<g display="inline">
		<g>
			<path fill="#FFFFFF" d="M18.1,11.1c3.6-0.4,6.2-2,6.2-4c0-2.2-3.6-4.1-7.9-4.1c-2.4,0-4.5,0.5-5.9,1.4"/>
			<path fill="#FFFFFF" d="M18.5,14.1c0.5-0.1,1-0.2,1.4-0.3c0.5-0.1,1-0.3,1.4-0.5c0.5-0.2,1-0.5,1.4-0.8c0.7-0.5,1.2-1,1.4-1.6
				c0-0.5,0-2.9,0-3.5c-0.2,0.6-0.7,1.6-1.4,2.1c-0.4,0.3-0.9,0.5-1.4,0.8c-0.4,0.2-0.9,0.3-1.4,0.5C19.5,10.9,19,11,18.5,11"/>
			<path fill="#FFFFFF" d="M17.5,17.1c0.5,0,0.6,0,1-0.1c0.5-0.1,1-0.2,1.4-0.3c0.5-0.1,1-0.3,1.4-0.5c0.5-0.2,1-0.5,1.4-0.8
				c0.7-0.5,1.2-1,1.4-1.6c0-0.5,0-2.6,0-3.1c-0.2,0.6-0.7,1.2-1.4,1.7c-0.4,0.3-0.9,0.5-1.4,0.8c-0.4,0.2-0.9,0.3-1.4,0.5
				c-0.5,0.1-0.9,0.2-1.4,0.3"/>
			<path fill="#FFFFFF" d="M14.6,20.3c0.5,0.1,0.5,0,1,0.1c0.2,0,0.5,0,0.7,0c0.2,0,0.5,0,0.7,0c0.5,0,1-0.1,1.4-0.1
				c0.5-0.1,1-0.2,1.4-0.3c0.5-0.1,1-0.3,1.4-0.5c0.5-0.2,1-0.5,1.4-0.8c0.7-0.5,1.2-1,1.4-1.6c0-0.5,0-2.6,0-3.1
				c-0.2,0.6-0.7,1.2-1.4,1.7c-0.4,0.3-0.9,0.5-1.4,0.8c-0.4,0.2-0.9,0.3-1.4,0.5c-0.5,0.1-0.9,0.2-1.4,0.3c-0.5,0.1-0.4,0-0.9,0.1"
				/>
		</g>
		<polygon fill-rule="evenodd" fill="#CDEBC3" points="22.1,18.7 19.8,20.2 19.8,10.8 22.1,9.4 		"/>
		<g>
			<g>
				<path fill="#42B549" d="M18.1,11.5L18,10.7c3.4-0.4,5.9-1.9,5.9-3.6c0-2-3.4-3.7-7.5-3.7c-2.2,0-4.3,0.5-5.7,1.3l-0.4-0.7
					c1.6-0.9,3.8-1.4,6.1-1.4c4.7,0,8.3,2,8.3,4.5C24.7,9.3,22,11.1,18.1,11.5z"/>
				<path fill="#42B549" d="M18.5,14.5c-0.2,0-0.4-0.1-0.4-0.3c0-0.2,0.1-0.4,0.3-0.5c0.5-0.1,0.9-0.2,1.4-0.3
					c0.5-0.1,1-0.3,1.4-0.5c0.5-0.2,1-0.5,1.4-0.7c0.7-0.5,1.1-0.9,1.3-1.3V9.1c-0.2,0.3-0.5,0.6-0.8,0.8c-0.4,0.3-0.9,0.6-1.5,0.8
					c-0.5,0.2-1,0.4-1.5,0.5c-0.5,0.1-1,0.2-1.5,0.3c-0.2,0-0.4-0.1-0.5-0.3c0-0.2,0.1-0.4,0.3-0.5c0.5-0.1,1-0.2,1.4-0.3
					c0.5-0.1,1-0.3,1.4-0.5c0.5-0.2,1-0.5,1.4-0.7c0.6-0.4,1.1-1.2,1.3-1.8C24,7.2,24.2,7,24.4,7.1c0.2,0,0.3,0.2,0.3,0.4V11
					c0,0.1,0,0.1,0,0.1c-0.3,0.8-1,1.3-1.6,1.8c-0.4,0.3-0.9,0.6-1.5,0.8c-0.5,0.2-1,0.4-1.5,0.5C19.6,14.3,19.1,14.4,18.5,14.5
					C18.5,14.5,18.5,14.5,18.5,14.5z"/>
				<path fill="#42B549" d="M17.5,17.5l0-0.8c0.2,0,0.3,0,0.4,0c0.2,0,0.3,0,0.6-0.1c0.5-0.1,0.9-0.2,1.4-0.3c0.5-0.1,1-0.3,1.4-0.5
					c0.5-0.2,1-0.5,1.4-0.7c0.7-0.5,1.1-0.9,1.3-1.3v-1.7c-0.2,0.2-0.5,0.4-0.8,0.7c-0.4,0.3-0.9,0.6-1.5,0.8
					c-0.5,0.2-1,0.4-1.5,0.5c-0.5,0.1-1,0.2-1.5,0.3l-0.1-0.8c0.5-0.1,1-0.2,1.4-0.3c0.5-0.1,1-0.3,1.4-0.5c0.5-0.2,1-0.5,1.4-0.7
					c0.7-0.5,1.1-1,1.3-1.5l0.8-2.5l0,5.9c-0.3,0.8-1,1.3-1.6,1.7c-0.4,0.3-1,0.6-1.5,0.8c-0.5,0.2-1,0.4-1.5,0.5
					c-0.5,0.1-1,0.2-1.5,0.3c-0.3,0.1-0.5,0.1-0.7,0.1C17.8,17.5,17.6,17.5,17.5,17.5z"/>
				<path fill="#42B549" d="M16.4,20.8c-0.3,0-0.5,0-0.8,0l-0.3,0c-0.2,0-0.3,0-0.7-0.1l0.1-0.8c0.3,0,0.4,0.1,0.6,0.1l0.3,0
					c0.5,0,0.9,0,1.4,0c0.5,0,0.9-0.1,1.4-0.1c0.5-0.1,0.9-0.2,1.4-0.3c0.5-0.1,1-0.3,1.4-0.5c0.5-0.2,1-0.5,1.4-0.7
					c0.7-0.5,1.1-0.9,1.3-1.3v-1.7c-0.2,0.2-0.5,0.4-0.8,0.7c-0.4,0.3-0.9,0.6-1.5,0.8c-0.5,0.2-1,0.4-1.5,0.5
					c-0.5,0.1-1,0.2-1.5,0.3c-0.3,0-0.4,0-0.6,0.1c-0.1,0-0.2,0-0.3,0l0-0.8c0.2,0,0.3,0,0.4,0c0.2,0,0.2,0,0.5,0
					c0.5-0.1,1-0.2,1.4-0.3c0.5-0.1,1-0.3,1.4-0.5c0.5-0.2,1-0.5,1.4-0.7c0.7-0.5,1.1-1,1.3-1.5l0.8-2.5l0,5.9
					c-0.3,0.8-1,1.3-1.6,1.8c-0.4,0.3-1,0.6-1.5,0.8c-0.5,0.2-1,0.4-1.5,0.5c-0.5,0.1-1,0.2-1.5,0.3c-0.5,0.1-1,0.1-1.5,0.1
					C16.8,20.8,16.6,20.8,16.4,20.8z"/>
			</g>
			<g>
				<g>
					<g>
						<circle fill="#CDEBC3" cx="9.5" cy="13.2" r="8.8"/>
						<path fill="#42B549" d="M9.5,22.4c-4.5,0-8.3-3.2-9.1-7.7C-0.4,9.7,3,4.9,8,4.1C8.5,4,9,4,9.5,4c4.5,0,8.3,3.2,9.1,7.7
							c0.9,5-2.5,9.8-7.5,10.6C10.5,22.3,10,22.4,9.5,22.4z M9.5,4.8c-0.5,0-0.9,0-1.4,0.1C3.5,5.7,0.5,10,1.2,14.6
							c0.7,4,4.2,7,8.3,7c0.5,0,0.9,0,1.4-0.1c4.6-0.8,7.6-5.1,6.9-9.7C17.1,7.7,13.6,4.8,9.5,4.8z"/>
					</g>
					<g>
						<path fill="#42B549" d="M8.2,12.5l0.2-0.2c0.4-0.4,0.5-0.8,0.5-1.4c0-0.5-0.2-1-0.6-1.4C8,9.2,7.6,9,7,9L5.2,9
							C5,9,4.9,9.1,4.8,9.1C4.7,9.2,4.7,9.3,4.7,9.5v5.8c0,0.1,0,0.2,0.1,0.3c0.1,0.1,0.2,0.1,0.3,0.1c0.1,0,0.2,0,0.3-0.1
							c0.1-0.1,0.1-0.2,0.1-0.3v-2.3H7c0.1,0,0.2,0,0.3,0l0.1,0l1.5,2.6c0.1,0.1,0.2,0.2,0.3,0.2c0,0,0.1,0,0.1,0
							c0.1,0,0.2,0,0.2-0.1c0.1-0.1,0.2-0.2,0.2-0.3c0,0,0-0.1,0-0.1c0-0.1,0-0.2-0.1-0.2L8.2,12.5z M5.6,9.9H7
							c0.3,0,0.5,0.1,0.7,0.3C7.9,10.4,8,10.7,8,10.9c0,0.3-0.1,0.5-0.3,0.7C7.5,11.9,7.3,12,7,12H5.6V9.9z"/>
						<path fill="#42B549" d="M14.4,11.7c-0.4-0.5-1-0.7-1.6-0.7c-0.6,0-1.2,0.2-1.6,0.7c-0.4,0.5-0.7,1-0.7,1.6v3.7
							c0,0.1,0,0.2,0.1,0.3c0.1,0.1,0.2,0.1,0.3,0.1c0.1,0,0.2,0,0.3-0.1c0.1-0.1,0.1-0.2,0.1-0.3v-1.8l0.2,0.1
							c0.4,0.2,0.7,0.3,1.2,0.3c0.6,0,1.2-0.2,1.6-0.7c0.4-0.5,0.7-1,0.7-1.6C15.1,12.7,14.8,12.2,14.4,11.7z M12.8,14.8
							c-0.4,0-0.7-0.1-1-0.4c-0.2-0.2-0.4-0.5-0.4-0.8l0-0.3c0-0.4,0.1-0.7,0.4-0.9c0.3-0.3,0.6-0.4,1-0.4c0.4,0,0.7,0.1,1,0.4
							c0.3,0.3,0.4,0.6,0.4,1c0,0.4-0.1,0.7-0.4,1C13.5,14.6,13.2,14.8,12.8,14.8z"/>
					</g>
				</g>
			</g>
		</g>
	</g>
</g>
<g id="game">
	<path fill="#999999" d="M20.6,21.6c-1.3,0-2.5-0.6-3.5-1.6c-1.2-1.3-1.5-1.7-2.1-2.4l-0.3-0.4h-4.6L10,17.5C9.3,18.3,9,18.7,7.8,20
		c-0.9,1-2.2,1.6-3.5,1.6c-1.9,0-4.1-1.4-4.1-5.3c0-4.4,1.5-9.3,3.4-11.4c0.9-0.9,2.1-1.4,3.5-1.4c1.4,0,2.8,0.5,3.7,1.4
		c0.4,0.3,1.3,0.6,1.7,0.6c0.5-0.1,1.4-0.3,1.7-0.6c0.9-0.8,2.3-1.4,3.7-1.4c1.4,0,2.6,0.5,3.5,1.4c1.9,2.1,3.4,7,3.4,11.4
		C24.8,20.2,22.5,21.6,20.6,21.6z M10,16.3h5c0.1,0,0.2,0.1,0.3,0.2l0.4,0.6c0.6,0.8,0.9,1.1,2,2.4c0.8,0.9,1.8,1.3,2.9,1.3
		c1.5,0,3.4-1.2,3.4-4.5c0-4.2-1.4-8.9-3.2-10.8c-0.9-1-2.1-1.2-2.9-1.2c-1.2,0-2.4,0.4-3.1,1.1c-0.6,0.6-2,0.8-2.2,0.9
		c0,0-0.1,0-0.1,0c-0.2,0-1.6-0.2-2.2-0.8C9.5,4.7,8.3,4.2,7.1,4.2c-0.8,0-2,0.2-2.9,1.2C2.4,7.4,1,12,1,16.2c0,3.4,1.8,4.5,3.4,4.5
		c1,0,2.1-0.5,2.9-1.3c1.2-1.3,1.5-1.6,2.1-2.4l0.4-0.5C9.8,16.4,9.9,16.3,10,16.3z M7.5,14.6c-0.8,0-1.4-0.6-1.4-1.4v-1h-1
		c-0.8,0-1.4-0.6-1.4-1.4c0-0.8,0.6-1.4,1.4-1.4h1v-1c0-0.8,0.6-1.4,1.4-1.4c0.8,0,1.4,0.6,1.4,1.4v1h1c0.8,0,1.4,0.6,1.4,1.4
		c0,0.8-0.6,1.4-1.4,1.4h-1v1C8.9,14,8.3,14.6,7.5,14.6z M5.1,10.2c-0.4,0-0.6,0.3-0.6,0.6c0,0.3,0.3,0.6,0.6,0.6h1.4
		c0.2,0,0.4,0.2,0.4,0.4v1.4c0,0.4,0.3,0.6,0.6,0.6c0.3,0,0.6-0.3,0.6-0.6v-1.4c0-0.2,0.2-0.4,0.4-0.4H10c0.4,0,0.6-0.3,0.6-0.6
		c0-0.3-0.3-0.6-0.6-0.6H8.5c-0.2,0-0.4-0.2-0.4-0.4V8.4c0-0.4-0.3-0.6-0.6-0.6C7.2,7.7,7,8,7,8.4v1.4c0,0.2-0.2,0.4-0.4,0.4H5.1z
		 M16.2,13.7c-0.9,0-1.6-0.7-1.6-1.6c0-0.9,0.7-1.6,1.6-1.6c0.9,0,1.6,0.7,1.6,1.6C17.8,12.9,17.1,13.7,16.2,13.7z M16.2,11.2
		c-0.5,0-0.8,0.4-0.8,0.8s0.4,0.8,0.8,0.8c0.5,0,0.8-0.4,0.8-0.8S16.7,11.2,16.2,11.2z M18.7,10.7c-0.9,0-1.6-0.7-1.6-1.6
		c0-0.9,0.7-1.6,1.6-1.6s1.6,0.7,1.6,1.6C20.3,9.9,19.6,10.7,18.7,10.7z M18.7,8.2c-0.5,0-0.8,0.4-0.8,0.8s0.4,0.8,0.8,0.8
		s0.8-0.4,0.8-0.8S19.2,8.2,18.7,8.2z"/>
</g>
<g id="game-active" display="none">
	<g display="inline">
		<path fill="#CDEBC3" d="M10.5,5.1c-1.4-1.4-4.7-2-6.6,0c-1.8,2-3.3,6.7-3.3,11.1c0,5.4,4.5,6.1,6.9,3.5c1.4-1.5,1.5-1.8,2.5-3h5
			c0.9,1.2,1.1,1.4,2.5,3c2.4,2.6,6.9,1.9,6.9-3.5c0-4.4-1.5-9.1-3.3-11.1c-1.9-2-5.2-1.4-6.6,0c-0.5,0.5-2,0.7-2,0.7
			S11.1,5.6,10.5,5.1z"/>
		<path fill="#CDEBC3" d="M9.3,17.6l0.8-1.1C4.7,16,2.4,13.1,1.6,9.8c-0.6,2-1,4.2-1,6.4c0,5.4,4.5,6.1,6.9,3.5
			C8.5,18.6,8.9,18.2,9.3,17.6L9.3,17.6z"/>
		<path fill="#CDEBC3" d="M15.7,17.6l-0.8-1.1c5.4-0.5,7.8-3.4,8.6-6.7c0.6,2,1,4.2,1,6.4c0,5.4-4.5,6.1-6.9,3.5
			C16.5,18.6,16.1,18.2,15.7,17.6L15.7,17.6z"/>
		<path fill="#42B549" d="M20.6,21.6c-1.3,0-2.5-0.6-3.5-1.6c-1.2-1.3-1.5-1.7-2.1-2.4l-0.3-0.4h-4.6L10,17.5
			C9.3,18.3,9,18.7,7.8,20c-0.9,1-2.2,1.6-3.5,1.6c-1.9,0-4.1-1.4-4.1-5.3c0-4.4,1.5-9.3,3.4-11.4c0.9-0.9,2.1-1.4,3.5-1.4
			c1.4,0,2.8,0.5,3.7,1.4c0.4,0.3,1.3,0.6,1.7,0.6c0.5-0.1,1.4-0.3,1.7-0.6c0.9-0.8,2.3-1.4,3.7-1.4c1.4,0,2.6,0.5,3.5,1.4
			c1.9,2.1,3.4,7,3.4,11.4C24.8,20.2,22.5,21.6,20.6,21.6z M9.8,16.3h5.3l0.5,0.7c0.6,0.8,0.9,1.1,2,2.4c0.8,0.9,1.8,1.3,2.9,1.3
			c1.5,0,3.4-1.2,3.4-4.5c0-4.2-1.4-8.9-3.2-10.8c-0.9-1-2.1-1.2-2.9-1.2c-1.2,0-2.4,0.4-3.1,1.1c-0.6,0.6-2,0.8-2.2,0.9l-0.1,0
			l-0.1,0c-0.2,0-1.6-0.2-2.2-0.8C9.5,4.7,8.3,4.2,7.1,4.2c-0.8,0-2,0.2-2.9,1.2C2.4,7.4,1,12,1,16.2c0,3.4,1.8,4.5,3.4,4.5
			c1,0,2.1-0.5,2.9-1.3c1.2-1.3,1.5-1.6,2.1-2.4L9.8,16.3z"/>
		<g>
			<path fill="#FFFFFF" d="M8.5,8.4v1.4H10c0.6,0,1,0.4,1,1c0,0.5-0.5,1-1,1H8.5v1.4c0,0.6-0.4,1-1,1c-0.5,0-1-0.5-1-1v-1.4H5.1
				c-0.6,0-1-0.4-1-1c0-0.5,0.5-1,1-1h1.4V8.4c0-0.6,0.4-1,1-1C8.1,7.3,8.5,7.8,8.5,8.4z"/>
			<path fill="#42B549" d="M7.5,14.6c-0.8,0-1.4-0.6-1.4-1.4v-1h-1c-0.8,0-1.4-0.6-1.4-1.4c0-0.8,0.6-1.4,1.4-1.4h1v-1
				c0-0.8,0.6-1.4,1.4-1.4c0.8,0,1.4,0.6,1.4,1.4v1h1c0.8,0,1.4,0.6,1.4,1.4c0,0.8-0.6,1.4-1.4,1.4h-1v1C8.9,14,8.3,14.6,7.5,14.6z
				 M5.1,10.2c-0.4,0-0.6,0.3-0.6,0.6c0,0.3,0.3,0.6,0.6,0.6h1.4c0.2,0,0.4,0.2,0.4,0.4v1.4c0,0.4,0.3,0.6,0.6,0.6
				c0.3,0,0.6-0.3,0.6-0.6v-1.4c0-0.2,0.2-0.4,0.4-0.4H10c0.4,0,0.6-0.3,0.6-0.6c0-0.3-0.3-0.6-0.6-0.6H8.5c-0.2,0-0.4-0.2-0.4-0.4
				V8.4c0-0.4-0.3-0.6-0.6-0.6C7.2,7.7,7,8,7,8.4v1.4c0,0.2-0.2,0.4-0.4,0.4H5.1z"/>
		</g>
		<g>
			<circle fill="#FFFFFF" cx="18.7" cy="9" r="1.2"/>
			<path fill="#42B549" d="M18.7,10.7c-0.9,0-1.6-0.7-1.6-1.6c0-0.9,0.7-1.6,1.6-1.6c0.9,0,1.6,0.7,1.6,1.6
				C20.3,10,19.6,10.7,18.7,10.7z M18.7,8.2c-0.5,0-0.8,0.4-0.8,0.8c0,0.5,0.4,0.8,0.8,0.8s0.8-0.4,0.8-0.8
				C19.5,8.6,19.2,8.2,18.7,8.2z"/>
		</g>
		<g>
			<circle fill="#FFFFFF" cx="16.2" cy="12" r="1.2"/>
			<path fill="#42B549" d="M16.2,13.7c-0.9,0-1.6-0.7-1.6-1.6c0-0.9,0.7-1.6,1.6-1.6c0.9,0,1.6,0.7,1.6,1.6
				C17.8,12.9,17.1,13.7,16.2,13.7z M16.2,11.2c-0.5,0-0.8,0.4-0.8,0.8c0,0.5,0.4,0.8,0.8,0.8c0.5,0,0.8-0.4,0.8-0.8
				C17.1,11.6,16.7,11.2,16.2,11.2z"/>
		</g>
	</g>
</g>
</svg>
