<svg xmlns="http://www.w3.org/2000/svg" viewBox="0 0 33.31 49.95"><defs><style>.a{fill:#3db54a;}.b{fill:#dfefd9;}.c{fill:#60bb47;}</style></defs><title>pdam-active</title><path class="a" d="M24.43,34.77" transform="translate(-8.35 -0.02)"/><path class="b" d="M38.22,25.74l-1.13-2.55L25,1.85,18.45,13.41,12.23,24.33a17.8,17.8,0,0,0-3,9.73c0,8.14,7.22,15,15.76,15s15.75-7.18,15.75-15.37C40.75,31.44,39.93,29.52,38.22,25.74ZM20.66,41a3.93,3.93,0,0,1-1.48.07A4,4,0,0,1,16.24,39h0l-0.05-.13A4.1,4.1,0,0,1,16,38.4c-2.22-5.59,2.18-13.18,2.18-13.18-0.39,4.56,3.76,8.07,4.62,9.38h0a3.92,3.92,0,0,1,.82,1.61A4,4,0,0,1,20.66,41Z" transform="translate(-8.35 -0.02)"/><path class="c" d="M25,50C16,50,8.35,42.69,8.35,34.06a18.8,18.8,0,0,1,3.13-10.22L25,0,37.87,22.75,39,25.38c1.76,3.89,2.61,5.87,2.61,8.34C41.65,42.38,33.87,50,25,50ZM25,3.67L13,24.86a16.83,16.83,0,0,0-2.82,9.2c0,7.65,6.8,14.12,14.86,14.12s14.85-6.76,14.85-14.47c0-2.09-.8-3.94-2.45-7.6l-1.13-2.55Z" transform="translate(-8.35 -0.02)"/><path class="c" d="M19.74,41.59a4.55,4.55,0,0,1-.63,0,4.46,4.46,0,0,1-3-1.82l0,0-0.35-.67a5.57,5.57,0,0,1-.22-0.53c-2.27-5.72,2-13.26,2.22-13.57l1.08-1.87-0.18,2.15c-0.29,3.45,2.18,6.29,3.66,8a12.24,12.24,0,0,1,.89,1.09l0.08,0.13a4.37,4.37,0,0,1,.79,1.65h0a4.45,4.45,0,0,1-3.31,5.36A4.3,4.3,0,0,1,19.74,41.59Zm-3.1-2.89,0,0.07a3.48,3.48,0,1,0,5.74-3.84l-0.34-.41,0,0-0.52-.61c-1.22-1.4-3.31-3.8-3.81-6.77-1.12,2.49-2.84,7.33-1.33,11.11a3.79,3.79,0,0,0,.17.43Z" transform="translate(-8.35 -0.02)"/></svg>