<svg xmlns="http://www.w3.org/2000/svg" viewBox="0 0 33.39 50.08"><defs><style>.a{fill:#676767;}.b{fill:#3db54a;}</style></defs><title>pdam</title><path class="a" d="M25,50c-9,0-16.7-7.31-16.7-16a18.85,18.85,0,0,1,3.14-10.24L25,0,37.91,22.75l1.17,2.63c1.72,3.79,2.61,5.88,2.61,8.35C41.69,42.42,33.89,50,25,50ZM25,3.88L13,24.94a16.73,16.73,0,0,0-2.8,9.15c0,7.6,6.76,14,14.76,14s14.76-6.72,14.76-14.38c0-2.07-.79-3.92-2.44-7.56l-1.13-2.55Z" transform="translate(-8.31 0.04)"/><path class="a" d="M19.75,41.6a4.5,4.5,0,0,1-.62,0,4.45,4.45,0,0,1-3-1.81l0,0-0.35-.67a5.28,5.28,0,0,1-.22-0.53c-2.27-5.71,2-13.23,2.22-13.55l1.08-1.86L18.67,25.3c-0.29,3.44,2.18,6.27,3.65,8a12.24,12.24,0,0,1,.89,1.09l0.08,0.12a4.36,4.36,0,0,1,.8,1.65h0a4.44,4.44,0,0,1-3.3,5.35A4.32,4.32,0,0,1,19.75,41.6Zm-3.1-2.89,0,0.07a3.49,3.49,0,0,0,2.57,1.83,3.46,3.46,0,0,0,3.16-5.66l-0.36-.43,0,0-0.5-.59c-1.22-1.4-3.3-3.79-3.8-6.76-1.12,2.49-2.83,7.32-1.33,11.09a4,4,0,0,0,.17.43Z" transform="translate(-8.31 0.04)"/><path class="b" d="M24.43,34.79" transform="translate(-8.31 0.04)"/></svg>